<svg width="829" height="253" viewBox="0 0 829 253" fill="none" xmlns="http://www.w3.org/2000/svg">
<path d="M47.4998 222H199.869C248.586 222 295.277 202.508 329.534 167.871V167.871C381.665 115.161 452.717 85.5 526.851 85.5H703.804C729.384 85.5 753.755 74.6156 770.827 55.567L791.5 32.5H811" stroke="#565555" stroke-dasharray="4 4"/>
<circle cx="457.452" cy="93.4518" r="34.4518" fill="#19191B"/>
<path d="M463.979 102.338H451.577V99.6528L457.29 93.647C458.698 92.0438 459.402 90.7702 459.402 89.8262C459.402 89.0612 459.235 88.4793 458.901 88.0806C458.568 87.6818 458.083 87.4824 457.449 87.4824C456.822 87.4824 456.313 87.751 455.923 88.2881C455.532 88.8171 455.337 89.4803 455.337 90.2778H451.211C451.211 89.1873 451.483 88.1823 452.029 87.2627C452.574 86.335 453.331 85.6107 454.299 85.0898C455.268 84.569 456.35 84.3086 457.546 84.3086C459.467 84.3086 460.944 84.7521 461.977 85.6392C463.019 86.5262 463.54 87.7998 463.54 89.46C463.54 90.1598 463.41 90.8434 463.149 91.5107C462.889 92.1699 462.482 92.8657 461.929 93.5981C461.383 94.3224 460.5 95.2949 459.28 96.5156L456.985 99.1646H463.979V102.338Z" fill="white"/>
<circle cx="34.4516" cy="218.452" r="34.4518" fill="#19191B"/>
<path d="M38.2513 227.338H34.1254V214.204L30.0726 215.388V212.263L37.8729 209.565H38.2513V227.338Z" fill="white"/>
<circle cx="794.452" cy="34.4518" r="34.4518" fill="#19191B"/>
<path d="M792.893 32.7305H794.833C796.372 32.7305 797.141 31.9777 797.141 30.4722C797.141 29.8862 796.957 29.4102 796.591 29.0439C796.225 28.6696 795.708 28.4824 795.041 28.4824C794.496 28.4824 794.02 28.6411 793.613 28.9585C793.214 29.2759 793.015 29.6706 793.015 30.1426H788.901C788.901 29.2067 789.161 28.3726 789.682 27.6401C790.203 26.9077 790.923 26.3381 791.843 25.9312C792.77 25.5161 793.788 25.3086 794.894 25.3086C796.872 25.3086 798.426 25.7603 799.558 26.6636C800.689 27.5669 801.254 28.8079 801.254 30.3867C801.254 31.1517 801.018 31.876 800.546 32.5596C800.082 33.235 799.403 33.7843 798.508 34.2075C799.452 34.5493 800.192 35.0701 800.729 35.77C801.267 36.4618 801.535 37.3203 801.535 38.3457C801.535 39.9326 800.925 41.2021 799.704 42.1543C798.483 43.1064 796.88 43.5825 794.894 43.5825C793.731 43.5825 792.648 43.3628 791.647 42.9233C790.655 42.4757 789.902 41.8613 789.389 41.0801C788.876 40.2907 788.62 39.3955 788.62 38.3945H792.758C792.758 38.9398 792.978 39.4118 793.417 39.8105C793.857 40.2093 794.398 40.4087 795.041 40.4087C795.765 40.4087 796.343 40.2093 796.774 39.8105C797.206 39.4036 797.421 38.8869 797.421 38.2603C797.421 37.3651 797.198 36.7303 796.75 36.356C796.302 35.9816 795.684 35.7944 794.894 35.7944H792.893V32.7305Z" fill="white"/>
</svg>
