<svg width="89" height="92" viewBox="0 0 89 92" fill="none" xmlns="http://www.w3.org/2000/svg">
<path d="M21.7118 20.2262L21.8704 71.4933C21.8766 73.4764 23.4238 75.014 25.4069 75.0079L62.8656 74.892C64.7753 74.8861 66.3862 73.2652 66.3802 71.3556L66.2548 30.812C66.2514 29.7103 65.7339 28.6101 64.8504 27.9518L50.5685 17.3459C49.9795 16.907 49.2441 16.6155 48.5096 16.6177L25.2265 16.6898C23.2433 16.6959 21.7059 18.3166 21.7118 20.2262Z" fill="white"/>
<path d="M47.2074 23.012L28.6249 23.0695C27.2294 23.0738 26.1311 24.179 26.2086 25.5008L26.6331 67.7328C26.6371 69.0549 27.7423 70.1532 29.0644 70.1491L59.472 70.055C60.7941 70.051 61.8924 68.9458 61.8884 67.6237L61.7881 35.2329C61.7838 33.8374 60.6787 32.7391 59.2834 32.8169L52.2326 32.9121C50.9105 32.9162 49.7321 31.8916 49.7278 30.4961L49.646 27.7787C49.6398 25.7956 51.7662 24.6138 53.3852 25.6371L58.9046 29.0721C59.6404 29.5105 60.0836 30.3171 60.0861 31.1251L60.1839 38.9838C60.1882 40.3793 59.0899 41.4845 57.6943 41.4888L33.7497 41.416C32.3541 41.4203 31.2558 42.5254 31.2599 43.8475L31.2713 47.5199C31.2754 48.842 32.3805 49.9403 33.7026 49.9362L54.4148 49.7987C55.7369 49.7946 56.842 50.8929 56.8461 52.215L56.8527 54.345C56.8568 55.6671 55.7585 56.7722 54.4364 56.7763L33.7242 56.9138C32.3286 56.9182 31.2303 58.0233 31.3081 59.4186L31.314 61.3282C31.3181 62.6503 32.4232 63.7486 33.8187 63.7443L57.2486 63.5984" stroke="#19191B" stroke-width="2" stroke-miterlimit="10"/>
</svg>
