<svg width="70" height="59" viewBox="0 0 70 59" fill="none" xmlns="http://www.w3.org/2000/svg">
<path d="M47.1617 3.64815C30.6623 3.39135 33.1306 21.5256 36.4272 30.6248C32.0655 31.8236 23.3084 36.3923 23.1733 45.0762C23.0043 55.931 31.6544 58.2372 46.3085 58.4652C60.9625 58.6933 69.1291 57.1918 69.3065 45.7942C69.4484 36.6761 60.4719 32.0848 55.966 30.9289C59.906 21.9423 63.6611 3.90494 47.1617 3.64815Z" fill="white"/>
<path d="M27.5149 45.1654C27.4006 52.5126 37.8006 52.3069 46.196 52.4376C54.5914 52.5682 65.0186 53.8329 65.4885 46.1238C66.0255 37.3134 57.0193 35.168 51.3022 32.6749C46.9332 30.7696 54.715 29.2644 55.4772 21.3489C56.4312 11.4426 52.085 8.06786 46.8879 7.98703C40.8911 7.89375 37.63 11.8849 37.4985 20.3341C37.367 28.7834 45.3169 31.8468 42.1072 32.5318C38.8975 33.2167 27.6293 37.8182 27.5149 45.1654Z" stroke="#A6A6A6" stroke-width="2"/>
<circle cx="16.0654" cy="16.0657" r="15.6806" transform="rotate(1.42485 16.0654 16.0657)" fill="white"/>
<path d="M11.6958 23.1179L11.9721 12.0086C11.9941 11.1226 12.7276 10.4247 13.6136 10.4468L20.6336 10.6214C21.5196 10.6434 22.2175 11.3769 22.1954 12.2629L22.1191 15.3299C22.0971 16.2159 21.3637 16.9137 20.4776 16.8917L10.8336 16.6518C9.94761 16.6298 9.21418 17.3276 9.19214 18.2136C9.1701 19.0997 9.86793 19.8331 10.754 19.8551L15.5589 19.9746" stroke="#19191B" stroke-width="2" stroke-miterlimit="10"/>
<path d="M15.6828 28.7071C22.5147 28.877 28.1908 23.4764 28.3607 16.6445C28.5307 9.81265 23.1301 4.13656 16.2982 3.96662C9.46632 3.79669 3.79022 9.19727 3.62029 16.0292C3.45036 22.861 8.85094 28.5371 15.6828 28.7071Z" stroke="#19191B" stroke-width="2" stroke-miterlimit="10"/>
</svg>
