<svg width="75" height="75" viewBox="0 0 75 75" fill="none" xmlns="http://www.w3.org/2000/svg">
<circle cx="30.4998" cy="30.5" r="30.5" fill="white"/>
<path d="M34.2882 24.0789C30.1787 21.96 25.9408 24.2073 24.6566 27.0968M26.3903 35.8295C25.0301 34.6786 24.1625 33.092 23.9108 31.3989M27.8029 36.6642C30.6924 38.2052 35.3798 37.3705 37.3061 33.5179C37.8198 32.5547 38.0766 31.4631 38.0766 30.5M34.545 49.7631C34.7377 49.121 35.1229 48.6715 35.765 48.4789C36.664 48.1579 37.6271 47.901 38.4619 47.5158C39.3608 47.1947 40.0671 47.3231 40.8377 47.901C41.544 48.4789 42.1861 48.9926 42.9566 49.5063C43.2134 49.6989 43.5987 49.9558 43.9198 50.02C44.3692 50.1484 44.8829 50.0842 45.3324 49.6989C46.4882 48.5431 47.7082 47.4516 48.864 46.36C48.9282 46.2958 48.9924 46.2958 49.0566 46.2315C49.1208 46.1031 49.185 46.0389 49.2492 45.9105C49.3777 45.461 49.2492 44.9473 48.9924 44.4979C48.864 44.3052 48.7356 44.0484 48.6071 43.8558C48.1577 43.021 47.644 42.1863 47.1945 41.3516C47.0019 40.9663 47.0019 40.5168 47.1945 40.1315C47.644 39.1684 48.0934 38.2052 48.5429 37.2421C48.9282 36.3431 49.6345 35.8295 50.5977 35.7652C51.625 35.701 52.5882 35.5726 53.5513 35.38C54.3861 35.1873 54.7713 34.8663 54.8356 34.0315C54.964 32.4263 55.0282 30.8852 55.1566 29.28C55.2208 28.4452 54.8998 28.06 54.1292 27.8031C53.9366 27.7389 53.744 27.6747 53.5513 27.6105C52.5882 27.3537 51.625 27.0968 50.6619 26.9042C49.9556 26.7116 49.5703 26.3905 49.3135 25.7484C48.9924 24.7852 48.6071 23.7579 48.2219 22.7305C48.0292 22.2168 48.0935 21.7031 48.3503 21.2537C48.5429 20.9968 48.6713 20.74 48.864 20.4831C49.4419 19.7126 50.0198 18.8779 50.6619 18.0431C50.9829 17.5937 50.9829 17.08 50.7261 16.5663C50.5977 16.3737 50.5334 16.181 50.3408 15.9884C49.3134 14.8326 48.2861 13.6768 47.1945 12.521C46.8092 12.2 46.424 12.1358 46.0387 12.2642C45.6534 12.3926 45.204 12.5852 44.8187 12.8421C44.0482 13.2273 43.3419 13.741 42.6356 14.1905C41.9934 14.5758 41.3513 14.5758 40.645 14.3189C40.0029 13.9979 39.2966 13.6768 38.6545 13.42C36.985 12.6495 36.7924 12.3926 36.5356 10.5305C36.4071 9.69577 36.3429 8.79683 36.1503 7.96209C35.9577 7.12735 35.5082 6.74209 34.7377 6.67788C33.2608 6.54946 31.7198 6.48523 30.2429 6.42102C29.1513 6.42102 28.7661 6.67786 28.5092 7.70523C28.2524 8.66839 27.9956 9.69576 27.8029 10.6589C27.6103 11.4294 27.225 12.0716 26.4545 12.2642C25.3629 12.5852 24.2071 13.0347 23.1156 13.3558C22.6661 13.4842 22.2808 13.3558 21.8956 13.1631C21.7029 12.9705 21.4461 12.8421 21.1892 12.6494C20.4187 12.0716 19.584 11.4937 18.7492 10.8516C18.2998 10.5305 17.7861 10.5305 17.2724 10.7873C17.0798 10.9158 16.8229 10.98 16.6945 11.1726C15.6029 12.1358 14.5113 13.1631 13.3556 14.1263C12.7777 14.5758 12.7135 15.1537 13.0345 15.86C13.2271 16.3094 13.4198 16.6947 13.6766 17.08C14.0619 17.7221 14.4471 18.3642 14.8324 19.0063C15.2177 19.5842 15.2177 20.2263 14.9608 20.8042C14.5113 21.8958 13.9977 22.8589 13.484 23.9505C13.2271 24.4 12.9061 24.6568 12.5208 24.721C12.0071 24.7852 11.5577 24.9137 10.9798 24.9779C10.2092 25.0421 9.43871 25.1705 8.79661 25.2989C7.76924 25.4916 7.38398 25.8768 7.31977 26.9684C7.19134 28.4452 7.12714 29.9221 7.06293 31.3989C7.06293 32.2979 7.44819 32.8115 8.28292 33.0684C9.3745 33.3894 10.4661 33.6463 11.6219 33.9031C12.264 34.0958 12.7777 34.481 12.9703 35.1873C13.2913 36.2789 13.7408 37.3063 14.0619 38.3979C14.2545 38.9116 14.1261 39.4252 13.8692 39.8747C13.6766 40.1958 13.4198 40.581 13.1629 40.9021C12.585 41.6084 12.0713 42.2505 11.6219 43.021C11.2366 43.5989 11.3008 44.3052 11.8145 44.8831C12.1998 45.3326 12.5208 45.7821 12.9061 46.1674C13.6124 47.0021 13.6124 46.9379 14.3829 47.7084L15.6671 48.8C16.245 48.9926 16.8229 48.7358 17.2724 48.4147C18.1071 47.901 18.9419 47.5158 19.6482 47.0021C20.3545 46.5526 21.125 46.4884 21.8956 46.9379C22.8587 47.4516 23.8219 47.901 24.785 48.3505C25.2345 48.6073 25.4913 48.9284 25.5556 49.3779C25.7482 50.5979 25.9408 51.8821 26.1334 53.1021C26.1977 53.7442 26.5829 54.1294 27.225 54.2579C28.0598 54.3863 28.9587 54.4505 29.7934 54.5789C30.6282 54.5789 31.5913 54.5789 32.4261 54.5789C33.004 54.5789 33.3892 54.3221 33.5819 53.8084L34.545 49.7631Z" stroke="#19191B" stroke-width="2" stroke-miterlimit="10"/>
<circle cx="54.7185" cy="54.7187" r="14.1809" transform="rotate(-55.5043 54.7185 54.7187)" fill="white"/>
<path d="M53.2555 51.5762C51.3614 52.593 51.1067 54.8087 51.8758 56.0617C52.6095 57.4715 54.2072 58.0984 55.6786 57.6968M56.3704 57.3753C57.7218 56.6738 58.6362 54.6579 57.6671 52.9052C57.4333 52.4548 57.0827 52.0689 56.7136 51.8153M63.1652 58.241C62.9699 57.9981 62.8991 57.7321 62.9943 57.4353C63.108 57.0063 63.2632 56.5696 63.3354 56.1483C63.4491 55.7193 63.6843 55.4824 64.1086 55.3393C64.516 55.2208 64.882 55.1101 65.2817 54.9501C65.4231 54.9024 65.623 54.8224 65.7322 54.7162C65.8997 54.5778 66.0104 54.3641 65.9811 54.0904C65.8426 53.3432 65.7455 52.5882 65.6316 51.8579C65.6239 51.8164 65.6408 51.7918 65.6331 51.7503C65.6008 51.6918 65.5931 51.6503 65.5608 51.5919C65.4224 51.4243 65.1917 51.3383 64.9518 51.3184C64.8442 51.3168 64.712 51.2984 64.6043 51.2969C64.1661 51.2493 63.711 51.2264 63.2728 51.1788C63.0744 51.1512 62.9022 51.0328 62.8053 50.8576C62.5545 50.4317 62.3038 50.0059 62.0531 49.58C61.8101 49.1957 61.7992 48.7897 62.0282 48.4038C62.2742 47.9932 62.4786 47.5903 62.6584 47.1705C62.8044 46.7999 62.7828 46.5677 62.4798 46.3233C61.8985 45.8514 61.3249 45.421 60.7436 44.9491C60.4406 44.7047 60.2085 44.7263 59.9071 44.9539C59.8318 45.0108 59.7565 45.0677 59.6811 45.1246C59.3291 45.4261 58.9771 45.7275 58.6496 46.0459C58.3898 46.2658 58.1654 46.3289 57.8517 46.2582C57.3981 46.1276 56.9029 46.0047 56.4078 45.8818C56.1602 45.8204 55.9803 45.6605 55.8757 45.4437C55.828 45.3023 55.7634 45.1855 55.7157 45.044C55.5726 44.6197 55.4049 44.1784 55.2541 43.7126C55.1664 43.4712 54.9696 43.3359 54.7051 43.2991C54.5975 43.2976 54.5068 43.2715 54.3822 43.2945C53.6688 43.3839 52.9554 43.4732 52.2251 43.5872C52.0006 43.6503 51.8745 43.781 51.8223 43.9624C51.7701 44.1439 51.7255 44.3668 51.7225 44.5821C51.6672 44.9788 51.6781 45.3847 51.6643 45.7737C51.6429 46.1212 51.4738 46.3673 51.1894 46.5703C50.8973 46.7318 50.5883 46.9179 50.3208 47.0964C49.5859 47.5332 49.4368 47.5394 48.6556 47.1475C48.3019 46.9769 47.9405 46.7648 47.5699 46.6188C47.1993 46.4728 46.9334 46.5436 46.7059 46.822C46.2678 47.3541 45.8374 47.9277 45.4239 48.4767C45.1364 48.895 45.1334 49.1102 45.4595 49.4792C45.7609 49.8312 46.087 50.2002 46.4053 50.5276C46.6499 50.8043 46.7945 51.121 46.6654 51.467C46.501 51.9698 46.3689 52.5311 46.2045 53.0339C46.1353 53.24 45.9847 53.3538 45.8094 53.4507C45.6849 53.4738 45.568 53.5384 45.4266 53.5861C45.0022 53.7292 44.561 53.8969 44.0951 54.0476C43.8537 54.1353 43.7185 54.3322 43.6816 54.5967C43.6801 54.7043 43.6371 54.8196 43.6771 54.9195C43.7587 55.5915 43.865 56.2803 43.9297 56.9768C43.9498 57.3166 44.1543 57.4934 44.5095 57.5563C44.7325 57.6009 44.9308 57.6285 45.1461 57.6315C45.4936 57.653 45.8411 57.6744 46.1886 57.6959C46.5115 57.7004 46.7575 57.8695 46.9114 58.1201C47.2113 58.5797 47.4451 59.0302 47.7281 59.5145C47.8327 59.7313 47.8466 59.9219 47.7698 60.0864C47.6591 60.3002 47.59 60.5063 47.4624 60.7446C47.2841 61.0568 47.1304 61.3859 47.0106 61.6657C46.8139 62.1101 46.86 62.3592 47.2614 62.6712C47.7935 63.1093 48.3425 63.5228 48.8915 63.9363C49.236 64.173 49.5343 64.1606 49.8525 63.9084C50.263 63.5747 50.6488 63.224 51.0516 62.8488C51.2945 62.6534 51.5774 62.558 51.8988 62.6702C52.4016 62.8346 52.9136 62.9329 53.4165 63.0973C53.664 63.1588 53.827 63.3432 53.9316 63.56C54.004 63.7184 54.084 63.9182 54.1393 64.1012C54.2578 64.5086 54.3686 64.8745 54.5455 65.2497C54.6655 65.5495 54.9531 65.7109 55.3098 65.6662C55.5835 65.6369 55.8403 65.6322 56.0893 65.5861C56.5952 65.5352 56.5706 65.5183 57.0687 65.4259L57.8252 65.2213C58.0512 65.0505 58.1049 64.7615 58.1003 64.5047C58.1232 64.0496 58.1954 63.6282 58.1845 63.2223C58.1983 62.8333 58.3766 62.5211 58.7517 62.3442C59.2022 62.1104 59.628 61.8597 60.0539 61.609C60.2706 61.5044 60.4613 61.4905 60.6505 61.5842C61.1687 61.8317 61.7115 62.096 62.2297 62.3434C62.4927 62.4879 62.7418 62.4417 62.96 62.2295C63.2291 61.9435 63.4904 61.6159 63.7594 61.3298C63.9792 61.01 64.2328 60.6409 64.4526 60.321C64.6048 60.0996 64.6078 59.8843 64.4617 59.6752L63.1652 58.241Z" stroke="#A6A6A6" stroke-width="2" stroke-miterlimit="10"/>
</svg>
