<svg width="80" height="67" viewBox="0 0 80 67" fill="none" xmlns="http://www.w3.org/2000/svg">
<path d="M0.361842 3.07443L0.0210569 51.3361C0.00931566 52.9989 1.35226 54.354 3.01508 54.3573L55.6628 54.4609C57.3247 54.4642 58.6725 53.1159 58.6687 51.4541L58.5585 3.10718C58.5548 1.45341 57.2134 0.114604 55.5596 0.11402L3.36283 0.0956175C1.71383 0.0950361 0.373486 1.42547 0.361842 3.07443Z" fill="white"/>
<path d="M8.87638 45.9155L8.99959 12.7563C9.00369 11.6531 9.90031 10.7616 11.0035 10.7638L19.303 10.7801C19.5239 10.7806 19.7434 10.7444 19.9525 10.673L22.7458 9.72033C23.0576 9.61399 23.3848 9.55972 23.7143 9.55972L33.4119 9.55968C34.3074 9.55968 35.1909 9.76541 35.9942 10.161V10.161C36.7944 10.555 37.6741 10.7607 38.5659 10.7623L46.7382 10.7772C47.8388 10.7792 48.7309 11.67 48.7345 12.7706L48.834 42.9783C48.8395 44.6413 47.4912 45.9915 45.8282 45.9882L41.1906 45.9791M41.1858 45.5748L18.1522 45.8516C17.0367 45.865 16.1259 44.9633 16.1281 43.8478L16.1534 30.9944L16.096 26.218C16.0596 23.1897 18.485 20.7053 21.5133 20.6689V20.6689C24.5416 20.6325 27.026 23.0579 27.0624 26.0862L27.1867 36.4335C27.2094 38.3192 28.7564 39.8295 30.6422 39.8069V39.8069C32.5279 39.7842 34.0382 38.2372 34.0155 36.3514L33.8626 23.625C33.842 21.9107 35.215 20.5043 36.9293 20.4837V20.4837C38.6436 20.4631 40.05 21.8361 40.0706 23.5504L40.2646 39.6913" stroke="#19191B" stroke-width="2"/>
<path d="M33.8857 34.0015L54.4848 33.9057C55.6303 33.9086 56.6281 33.2328 57.079 32.2163L57.7303 30.7158C58.1312 29.7476 59.1788 29.0719 60.3243 29.0748L76.4811 29.2647C78.3737 29.2695 79.7635 31.1145 79.1116 32.8573L78.2588 35.2296C77.8575 36.3431 76.8098 37.0673 75.6144 37.0643L75.465 37.0639C74.3195 37.0609 73.2719 37.7367 72.8209 38.8016L62.7947 64.265C62.3936 65.3301 61.3458 66.0542 60.2003 66.0513L43.6652 66.009C42.4699 66.0059 41.4258 65.2764 41.0301 64.2093L31.2367 37.6775C30.5938 35.8829 31.9433 33.9965 33.8857 34.0015Z" fill="white"/>
<path d="M72.9641 34.9412L68.0476 34.8651C67.2282 34.8524 66.563 35.4048 66.3526 36.1688L61.4625 55.1227C61.2574 55.938 60.5869 56.4392 59.7675 56.4265L45.2109 56.2012C44.3432 56.1878 43.5142 55.6123 43.1839 54.7375L37.8969 41.6624C37.3213 40.2723 38.1434 38.9039 39.4931 38.9247L59.4482 39.2336C60.8461 39.2552 61.9624 40.756 61.5741 42.1312L57.4626 57.4139C57.2574 58.2292 56.5869 58.7304 55.7675 58.7177L48.7784 58.6096C47.9108 58.5961 47.0283 57.9686 46.6927 57.0426L43.4062 47.9885C42.9322 46.6512 43.7114 45.3332 45.061 45.3541L52.966 45.4765C54.3156 45.4973 55.4215 46.8956 55.1295 48.2723L54.6377 50.5155C54.4378 51.382 53.7726 51.9344 52.905 51.921L48.3259 51.8501" stroke="#A6A6A6" stroke-width="2" stroke-miterlimit="10"/>
<path d="M49.1529 63.6954C50.2504 63.7115 51.0472 62.7854 50.9326 61.6269C50.8179 60.4684 49.8353 59.5162 48.7377 59.5002C47.6402 59.4841 46.8434 60.4102 46.9581 61.5687C47.0727 62.7272 48.0553 63.6793 49.1529 63.6954Z" stroke="#A6A6A6" stroke-width="2" stroke-miterlimit="10"/>
<path d="M59.2616 63.3035C60.3592 63.3196 61.156 62.3935 61.0414 61.235C60.9267 60.0765 59.944 59.1243 58.8465 59.1082C57.7489 59.0921 56.9521 60.0183 57.0667 61.1768C57.1814 62.3353 58.1641 63.2875 59.2616 63.3035Z" stroke="#A6A6A6" stroke-width="2" stroke-miterlimit="10"/>
</svg>
