<svg width="73" height="56" viewBox="0 0 73 56" fill="none" xmlns="http://www.w3.org/2000/svg">
<path d="M4.19273 7.60492L43.7041 7.58482C45.4156 7.58395 46.9032 6.56962 47.5721 5.04894L48.5383 2.80412C49.1329 1.35587 50.695 0.341512 52.4064 0.340641L67.8091 0.332803C70.6367 0.331364 72.7215 3.08141 71.7556 5.68821L70.4924 9.23633C69.898 10.9018 68.3359 11.9885 66.5501 11.9894L66.3269 11.9896C64.6154 11.9904 63.0534 13.0048 62.3845 14.5979L47.522 52.6865C46.9275 54.2796 45.3655 55.3663 43.654 55.3672L18.9501 55.3798C17.1643 55.3807 15.6011 54.2955 15.0051 52.7031L0.251828 13.1091C-0.716858 10.4309 1.29076 7.6064 4.19273 7.60492Z" fill="white"/>
<path d="M61.2164 7.07191L53.8633 7.01149C52.6378 7.00142 51.6441 7.84145 51.331 8.99551L44.0569 37.6202C43.7518 38.8514 42.7501 39.6143 41.5245 39.6042L19.7536 39.4253C18.4559 39.4146 17.2149 38.5562 16.7191 37.2413L8.78491 17.5905C7.92108 15.5015 9.14785 13.4296 11.1663 13.4462L41.0113 13.6914C43.1019 13.7086 44.7747 15.9585 44.1967 18.0357L38.0794 41.118C37.7742 42.3493 36.7725 43.1121 35.547 43.1021L25.0941 43.0162C23.7965 43.0055 22.4754 42.0694 21.9716 40.6773L17.0375 27.0656C16.3259 25.0549 17.4885 23.0596 19.507 23.0762L31.3296 23.1734C33.3481 23.19 35.005 25.2855 34.5712 27.3639L33.8403 30.7507C33.5431 32.0591 32.5494 32.8991 31.2518 32.8884L24.4033 32.8322" stroke="#19191B" stroke-width="2" stroke-miterlimit="10"/>
<path d="M25.7161 50.422C27.3577 50.4344 28.5465 49.0342 28.3714 47.2947C28.1963 45.5552 26.7236 44.1351 25.0821 44.1228C23.4405 44.1104 22.2517 45.5106 22.4267 47.2501C22.6018 48.9896 24.0745 50.4097 25.7161 50.422Z" stroke="#19191B" stroke-width="2" stroke-miterlimit="10"/>
<path d="M40.8173 49.7903C42.4589 49.8026 43.6477 48.4025 43.4726 46.663C43.2975 44.9236 41.8248 43.5035 40.1833 43.4912C38.5417 43.4789 37.3529 44.879 37.5279 46.6184C37.703 48.3579 39.1757 49.778 40.8173 49.7903Z" stroke="#19191B" stroke-width="2" stroke-miterlimit="10"/>
</svg>
