<svg width="102" height="108" viewBox="0 0 102 108" fill="none" xmlns="http://www.w3.org/2000/svg">
<path d="M25.1197 22.8876L24.6807 80.0052C24.6637 82.2146 26.369 83.9462 28.5784 83.9632L70.3119 84.284C72.4394 84.3003 74.2536 82.5139 74.2699 80.3863L74.6171 35.216C74.6265 33.9885 74.0631 32.7566 73.0868 32.0126L57.3029 20.0252C56.6521 19.5292 55.8363 19.1956 55.018 19.1893L29.0778 18.9899C26.8683 18.9729 25.1361 20.76 25.1197 22.8876Z" fill="white"/>
<path d="M53.4903 26.2975L32.7872 26.1383C31.2324 26.1264 29.9955 27.3444 30.0661 28.818L30.0317 75.873C30.0204 77.3459 31.2384 78.5828 32.7114 78.5941L66.5892 78.8545C68.0621 78.8658 69.299 77.6478 69.3103 76.1749L69.5877 40.0877C69.5996 38.5329 68.3816 37.296 66.8262 37.3659L58.9699 37.3873C57.4969 37.376 56.1964 36.2203 56.2084 34.6655L56.1498 31.6372C56.1668 29.4278 58.5499 28.1367 60.3414 29.2962L66.4491 33.1894C67.2637 33.6867 67.7477 34.5906 67.7408 35.4907L67.7553 44.2472C67.7434 45.802 66.5065 47.02 64.9517 47.008L38.2763 46.6393C36.7215 46.6274 35.4846 47.8454 35.4733 49.3183L35.4418 53.4099C35.4305 54.8828 36.6485 56.1197 38.1215 56.131L61.1983 56.2266C62.6712 56.2379 63.8893 57.4748 63.8779 58.9477L63.8597 61.3208C63.8484 62.7937 62.6115 64.0118 61.1385 64.0004L38.0617 63.9049C36.507 63.893 35.2701 65.111 35.3399 66.6664L35.3236 68.794C35.3123 70.2669 36.5303 71.5038 38.0851 71.5158L64.1896 71.6346" stroke="#19191B" stroke-width="2" stroke-miterlimit="10"/>
<path d="M58.1509 60.5118L57.8935 94.0025C57.8836 95.298 58.8834 96.3133 60.1789 96.3233L84.6492 96.5113C85.8967 96.5209 86.9603 95.4735 86.9699 94.226L87.1735 67.7405C87.179 67.0208 86.8487 66.2985 86.2763 65.8623L77.0214 58.8335C76.6398 58.5426 76.1615 58.347 75.6817 58.3433L60.4717 58.2264C59.1762 58.2165 58.1605 59.2643 58.1509 60.5118Z" fill="white"/>
<path d="M74.7859 62.5111L62.6467 62.4178C61.7351 62.4108 61.0099 63.125 61.0512 63.989L61.0311 91.5795C61.0244 92.4432 61.7386 93.1684 62.6023 93.175L82.4664 93.3277C83.33 93.3344 84.0553 92.6202 84.0619 91.7565L84.2245 70.597C84.2315 69.6853 83.5173 68.9601 82.6053 69.001L77.9988 69.0136C77.1352 69.007 76.3726 68.3294 76.3796 67.4177L76.3453 65.6421C76.3553 64.3466 77.7526 63.5896 78.803 64.2694L82.3842 66.5522C82.8618 66.8438 83.1457 67.3738 83.1416 67.9015L83.1501 73.0359C83.1431 73.9475 82.4179 74.6617 81.5062 74.6547L65.8652 74.4385C64.9536 74.4315 64.2283 75.1457 64.2217 76.0093L64.2033 78.4084C64.1966 79.272 64.9108 79.9973 65.7745 80.0039L79.3054 80.0599C80.1691 80.0666 80.8833 80.7918 80.8766 81.6555L80.8659 83.0469C80.8593 83.9106 80.1341 84.6247 79.2704 84.6181L65.7394 84.5621C64.8278 84.5551 64.1025 85.2693 64.1435 86.1813L64.1339 87.4288C64.1273 88.2924 64.8415 89.0177 65.7531 89.0247L81.0594 89.0943" stroke="#A6A6A6" stroke-width="2" stroke-miterlimit="10"/>
</svg>
