<svg width="59" height="74" viewBox="0 0 59 74" fill="none" xmlns="http://www.w3.org/2000/svg">
<path d="M0.996869 2.99996L0.654389 69.9876C0.645918 71.6444 1.98218 72.9944 3.63901 73.0029L55.5258 73.2682C57.1826 73.2767 58.5326 71.9404 58.5411 70.2836L58.7013 38.9508C58.7097 37.2939 57.3735 35.9439 55.7166 35.9355L34.33 35.8261C32.9 35.8188 31.6739 34.8031 31.4006 33.3995L25.3919 2.53633C25.1186 1.13264 23.8926 0.116978 22.4625 0.109667L4.01217 0.0153376C2.35534 0.00686687 1.00534 1.34313 0.996869 2.99996Z" fill="white"/>
<path d="M8.21982 67.1535L8.40904 30.1428C8.41468 29.0383 9.31468 28.1475 10.4192 28.1531L17.315 28.1884C18.2463 28.1931 19.051 28.8401 19.2558 29.7486L22.0728 42.2469C22.38 43.6097 23.5871 44.5801 24.9841 44.5873L45.7657 44.6935C46.8703 44.6992 47.7611 45.5992 47.7555 46.7037L47.6604 65.2959C47.6546 66.4331 46.728 67.3504 45.5907 67.3445L42.1306 67.3268C41.0088 67.3211 40.1041 66.4071 40.1098 65.2854L40.1327 60.8147C40.1416 59.0772 38.7403 57.6615 37.0028 57.6526V57.6526C35.2653 57.6437 33.8495 59.045 33.8407 60.7825L33.8178 65.2532C33.8121 66.3749 32.8981 67.2796 31.7763 67.2739L29.127 67.2604C28.0053 67.2546 27.1006 66.3406 27.1063 65.2189L27.1334 59.9093C27.14 58.6351 26.1123 57.5969 24.8382 57.5904V57.5904C23.564 57.5839 22.5258 58.6115 22.5193 59.8857L22.4921 65.1953C22.4864 66.317 21.5724 67.2217 20.4506 67.216L13.5755 67.1809C12.471 67.1752 11.5801 66.2752 11.5858 65.1707L11.6506 52.4892L11.7879 25.6432L11.7975 23.7556C11.804 22.4814 12.8422 21.4538 14.1164 21.4603V21.4603C15.3906 21.4668 16.4288 20.4392 16.4353 19.165L16.446 17.0677C16.4525 15.7935 15.4249 14.7553 14.1507 14.7488L13.3118 14.7445C12.5009 14.7404 11.847 14.0797 11.8511 13.2689V13.2689C11.8553 12.4581 12.516 11.8041 13.3268 11.8083L14.1657 11.8125C15.4399 11.8191 16.4781 10.7914 16.4846 9.51726L16.4964 7.21018" stroke="#19191B" stroke-width="2"/>
</svg>
