<svg width="57" height="57" viewBox="0 0 57 57" fill="none" xmlns="http://www.w3.org/2000/svg">
<rect x="-0.000244141" width="56.5309" height="56.5309" rx="7" fill="white"/>
<circle cx="18.4206" cy="26.731" r="1.97356" stroke="#A6A6A6" stroke-width="2"/>
<circle cx="18.4206" cy="36.2465" r="1.97356" stroke="#A6A6A6" stroke-width="2"/>
<circle cx="27.9358" cy="26.731" r="1.97356" stroke="#A6A6A6" stroke-width="2"/>
<circle cx="27.9358" cy="36.2465" r="1.97356" stroke="#A6A6A6" stroke-width="2"/>
<path d="M38.046 11.8632H39.3719C43.2379 11.8632 46.3719 14.9972 46.3719 18.8632V41.1406C46.3719 45.0066 43.2379 48.1406 39.3719 48.1406H17.0945C13.2285 48.1406 10.0945 45.0066 10.0945 41.1406V18.4861C10.0945 14.8284 13.0597 11.8632 16.7174 11.8632V11.8632C18.8076 11.8632 20.502 10.1688 20.502 8.07864V7.40283" stroke="#A6A6A6" stroke-width="2"/>
<circle cx="37.451" cy="26.731" r="1.97356" stroke="#19191B" stroke-width="2"/>
<circle cx="27.5789" cy="26.731" r="1.97356" stroke="#19191B" stroke-width="2"/>
<circle cx="17.9048" cy="26.731" r="1.97356" stroke="#A6A6A6" stroke-width="2"/>
<circle cx="37.451" cy="36.2465" r="1.97356" stroke="#A6A6A6" stroke-width="2"/>
<circle cx="27.5789" cy="36.2465" r="1.97356" stroke="#19191B" stroke-width="2"/>
<circle cx="17.9048" cy="36.2465" r="1.97356" stroke="#19191B" stroke-width="2"/>
<path d="M23.4755 18.7024H30.9909C32.0954 18.7024 32.9909 17.8069 32.9909 16.7024V14.4579C32.9909 13.3533 33.8863 12.4579 34.9909 12.4579H36.0459C37.1505 12.4579 38.0459 11.5625 38.0459 10.4579V7.40283" stroke="#A6A6A6" stroke-width="2"/>
</svg>
