<svg width="159" height="53" viewBox="0 0 159 53" fill="none" xmlns="http://www.w3.org/2000/svg">
<path d="M25.9998 52.75C40.3592 52.75 51.9998 41.1094 51.9998 26.75C51.9998 12.3906 40.3592 0.75 25.9998 0.75C11.6404 0.75 -0.000244141 12.3906 -0.000244141 26.75C-0.000244141 41.1094 11.6404 52.75 25.9998 52.75Z" fill="#19191B"/>
<path d="M40.6583 46.6082C40.479 45.9807 40.2548 45.3979 40.0755 44.7703C39.1341 41.9462 37.8341 38.9427 35.8169 37.1944C41.3755 34.9531 43.9307 29.3944 43.9307 24.2841C43.9307 20.16 42.2721 16.3496 39.2238 13.5255C37.2065 11.6427 34.6962 10.2979 31.7824 9.53584C32.7686 8.32549 33.9341 7.38411 35.279 6.75653C37.6548 5.68066 40.3445 5.77032 42.5859 6.93584C41.0617 5.68067 39.4031 4.6048 37.61 3.70825C36.4893 3.84273 35.3686 4.1117 34.2928 4.6048C32.0962 5.59101 30.4376 7.15997 29.1824 8.9979C28.0169 8.81859 26.8514 8.72894 25.5962 8.72894C20.0824 8.72894 15.3755 10.3876 12.0134 13.4807C8.96517 16.3048 7.26172 20.16 7.26172 24.2393C7.26172 31.0531 11.8341 36.2979 19.141 37.822L19.6341 35.491C13.4479 34.191 9.63758 29.8876 9.63758 24.2393C9.63758 17.9186 14.6134 11.1048 25.5514 11.1048C26.3583 11.1048 27.1203 11.1496 27.8824 11.1945C25.3272 16.6186 25.2824 23.4324 25.4617 27.0186L25.5514 28.1841C26.0893 38.7634 23.6686 46.1151 18.8272 48.4462C16.1824 49.7462 12.9548 49.3427 10.1755 47.5048C12.3272 49.1634 14.7928 50.5082 17.3928 51.4048C18.2445 51.2255 19.0514 50.9565 19.8583 50.5979C23.2203 48.9841 28.7341 43.8738 27.9272 28.0496L27.8376 26.8841C27.5238 20.4738 28.3755 15.2289 30.3479 11.5979C37.9686 13.2565 41.4652 18.9048 41.4652 24.2393C41.4652 31.6358 36.3996 35.3117 31.4238 35.7151V35.76C31.379 35.76 31.2893 35.76 31.2445 35.76L31.5134 38.1358C34.0238 37.822 35.9065 40.0186 37.7445 45.4875C37.9238 46.0703 38.1479 46.6979 38.3272 47.2807C38.5514 47.9979 38.7755 48.6703 38.9997 49.3875C39.7169 48.9841 40.3893 48.5358 41.0617 48.0427C40.9721 47.6393 40.7928 47.1462 40.6583 46.6082Z" fill="white"/>
<path d="M112.537 31.8812C111.888 33.8647 111.278 35.4285 110.744 36.5346C110.21 37.6408 109.562 38.7851 108.761 39.8912C106.777 42.7519 105.518 43.324 104.832 43.324C104.603 43.324 104.45 43.2859 104.336 43.1715C104.222 43.057 104.183 42.9045 104.183 42.6756C104.183 42.3705 104.26 41.8365 104.374 41.0355L105.328 35.8862C105.518 34.8182 105.633 34.0554 105.633 33.4832C105.633 32.6441 105.442 31.9194 105.023 31.3472C104.603 30.737 104.031 30.4318 103.421 30.4318C102.963 30.4318 102.429 30.6607 101.933 31.0802C101.475 31.4617 100.751 32.2245 99.7971 33.3307L99.2631 33.9028L100.255 34.7419L100.522 34.4749C101.933 32.9492 102.543 32.7967 102.696 32.7967C102.81 32.7967 102.925 32.8348 103.077 33.0637C103.23 33.3307 103.306 33.6739 103.306 34.1316C103.306 34.6275 103.192 35.3522 102.963 36.2676L101.971 40.1963L101.742 41.2262C101.552 41.9509 101.437 42.4849 101.437 42.9045C101.437 43.6673 101.666 44.2776 102.124 44.7735C102.581 45.2312 103.192 45.4982 103.878 45.4982C105.213 45.4982 106.625 44.6972 108.074 43.1715C108.989 42.1798 109.905 40.8829 110.82 39.2809L109.218 45.994L112.46 44.6209L115.245 30.3174L112.766 31.0802L112.537 31.8812Z" fill="#19191B"/>
<path d="M156.095 31.0419L155.79 31.881C155.142 33.8645 154.532 35.4283 153.998 36.5345C153.464 37.6406 152.815 38.7849 152.014 39.891C150.031 42.7517 148.772 43.3238 148.085 43.3238C147.857 43.3238 147.704 43.2857 147.59 43.1713C147.475 43.0568 147.437 42.9043 147.437 42.6754C147.437 42.3703 147.513 41.8363 147.628 41.0353L148.581 35.886C148.772 34.818 148.886 34.0552 148.886 33.483C148.886 32.6439 148.696 31.9192 148.276 31.347C147.857 30.7368 147.284 30.4316 146.674 30.4316C146.216 30.4316 145.682 30.6605 145.187 31.08C144.729 31.4615 144.004 32.2243 143.051 33.3305L142.517 33.9026L143.508 34.7417L143.775 34.4747C145.187 32.949 145.797 32.7965 145.949 32.7965C146.064 32.7965 146.178 32.8346 146.331 33.0635C146.483 33.3305 146.56 33.6737 146.56 34.1315C146.56 34.6273 146.445 35.352 146.216 36.2675L145.263 40.1961L145.034 41.226C144.843 41.9507 144.729 42.4847 144.729 42.9043C144.729 43.6671 144.958 44.2774 145.415 44.7733C145.873 45.231 146.483 45.498 147.17 45.498C148.505 45.498 149.916 44.697 151.366 43.1713C152.281 42.1796 153.197 40.8827 154.112 39.2807L152.51 45.9557L155.752 44.5826L158.537 30.2791L156.095 31.0419Z" fill="#19191B"/>
<path d="M126.42 40.997C125.657 41.9887 124.933 42.6752 124.246 43.1329C123.598 43.5525 122.949 43.7814 122.263 43.7814C121.424 43.7814 120.737 43.4762 120.203 42.8659C119.669 42.2175 119.402 41.4165 119.402 40.4248C119.402 40.3867 119.402 40.3104 119.402 40.2722C121.653 39.395 123.483 38.3651 124.818 37.1445C126.23 35.8477 126.954 34.5127 126.954 33.1777C126.954 32.453 126.687 31.8809 126.191 31.4231C125.696 30.9654 125.047 30.7366 124.322 30.7366C123.102 30.7366 121.881 31.2706 120.661 32.2623C119.478 33.254 118.487 34.5508 117.724 36.0384C116.923 37.5641 116.541 39.0898 116.541 40.5774C116.541 42.1031 116.961 43.3237 117.8 44.2772C118.639 45.2308 119.784 45.6885 121.195 45.6885C122.339 45.6885 123.445 45.3834 124.437 44.7731C125.429 44.1628 126.42 43.1711 127.45 41.8361L127.679 41.531L126.649 40.6918L126.42 40.997ZM124.17 34.589C123.788 35.2756 123.331 35.9621 122.72 36.5724C121.958 37.3734 120.852 38.0981 119.478 38.7847C119.745 37.2208 120.318 35.7333 121.233 34.322C122.225 32.7963 123.178 32.0334 124.055 32.0334C124.475 32.0334 124.704 32.1479 124.704 32.7963C124.704 33.2921 124.551 33.9024 124.17 34.589Z" fill="#19191B"/>
<path d="M140.838 41.9516C139.77 43.0577 139.159 43.2866 138.816 43.2866C138.663 43.2866 138.473 43.2103 138.282 43.0577C138.053 42.867 137.786 42.5237 137.481 42.066C137.176 41.5702 136.833 40.9217 136.413 40.1208C135.726 38.7858 135.04 37.2601 134.43 35.6199C135.955 33.9416 137.557 33.0644 139.274 33.0644C139.503 33.0644 139.808 33.1025 140.265 33.2169L140.647 33.2932L141.257 30.5088L140.761 30.5469C139.731 30.5851 138.778 30.7758 137.977 31.1191C137.138 31.4242 136.337 31.9201 135.498 32.5685C134.887 33.0644 134.201 33.7128 133.552 34.4756C132.904 35.2385 132.294 36.0395 131.798 36.8405L137.862 10.4839L134.391 12.124L127.793 45.804L130.196 45.0412L130.234 44.8123C130.615 42.5619 131.416 40.3115 132.675 38.0992C133.285 39.5486 134.01 41.0743 134.887 42.6382C135.498 43.7443 135.993 44.5072 136.451 44.9649C136.947 45.4607 137.519 45.7277 138.129 45.7277C138.663 45.7277 139.693 45.4226 141.944 42.6763L142.134 42.4093L141.333 41.4939L140.838 41.9516Z" fill="#19191B"/>
<path d="M94.3675 41.3925C94.2149 40.8585 94.0242 40.3627 93.8716 39.8287C93.0706 37.4257 91.9645 34.8701 90.2481 33.3826C94.9777 31.4755 97.1519 26.7458 97.1519 22.3975C97.1519 18.8884 95.7406 15.6462 93.1469 13.2433C91.4305 11.6413 89.2945 10.497 86.8152 9.84856C87.6544 8.81871 88.6461 8.01771 89.7903 7.48371C91.8119 6.56829 94.1005 6.64458 96.0076 7.63628C95.9398 5.87325 93.7552 4.71634 91.7738 4.89001C90.8202 5.00444 89.8666 5.2333 88.9512 5.65287C87.0822 6.492 85.6709 7.827 84.6029 9.39085C83.6112 9.23828 82.6195 9.16199 81.5515 9.16199C76.86 9.16199 72.855 10.5733 69.9943 13.2051C67.4006 15.6081 65.9512 18.8884 65.9512 22.3594C65.9512 28.157 69.8417 32.6197 76.059 33.9166L76.4785 31.9332C71.2149 30.827 68.1465 27.1653 68.1465 22.3594C68.1465 16.9812 72.2066 11.1836 81.5134 11.1836C82.2 11.1836 82.8484 11.2217 83.4968 11.2598C81.3227 15.8751 81.1108 21.6728 81.2634 24.7242L81.3397 25.7159C81.7974 34.7176 79.9114 40.973 75.792 42.9564C73.5416 44.0625 70.7953 43.7192 68.4304 42.1554C68.9009 45.2026 72.3422 45.9431 74.5714 45.4738C75.2961 45.3212 75.9827 45.0924 76.6693 44.7872C79.53 43.4141 84.3952 39.0658 83.7087 25.6015L83.6324 24.6098C83.3654 19.1554 83.9164 14.6927 85.5946 11.6031C92.0789 13.0144 94.8803 17.8204 94.8803 22.3594C94.8803 28.6529 90.7439 31.7806 86.5101 32.1239V32.162C86.4719 32.162 86.3956 32.162 86.3575 32.162L86.4126 34.1836C88.5486 33.9166 90.1506 35.7856 91.7145 40.439C91.867 40.9348 92.0577 41.4688 92.2103 41.9647C92.401 42.575 92.5461 43.1633 92.7825 43.7574C93.1472 44.674 94.0158 45.6942 95.4482 45.6942C97.7536 45.6942 99.3811 42.2529 99.3811 42.2529L98.3979 41.2696C98.3979 41.2696 97.2298 42.5024 96.7955 42.763C96.3612 43.0236 95.7137 43.0786 95.2319 42.763C94.7502 42.4474 94.4819 41.8503 94.3675 41.3925Z" fill="#19191B" stroke="#19191B" stroke-width="0.5"/>
</svg>
