<svg width="123" height="123" viewBox="0 0 123 123" fill="none" xmlns="http://www.w3.org/2000/svg">
<g filter="url(#filter0_b)">
<circle cx="61.5" cy="61.5" r="61.5" fill="#19191B"/>
</g>
<path d="M69.1727 47.8197C69.2266 47.715 69.2764 47.5879 69.3262 47.4608C69.4991 47.0744 69.6913 46.6604 69.8876 46.2688C69.9913 46.037 69.931 45.8414 69.7771 45.6667C69.7139 45.5878 69.6507 45.509 69.5681 45.4576C69.0413 45.1102 68.5144 44.7627 67.9876 44.4153C67.7358 44.239 67.4741 44.2737 67.2176 44.4698C67.0465 44.6005 66.899 44.7261 66.7554 44.8739C66.503 45.0923 66.2781 45.3278 66.0297 45.5685C65.8007 45.7817 65.5471 45.8611 65.269 45.8067C64.7678 45.732 64.286 45.6299 63.7807 45.533C63.577 45.4853 63.4353 45.3774 63.3557 45.2094C63.2721 45.019 63.1884 44.8287 63.1006 44.616C62.9965 44.3142 62.8924 44.0123 62.769 43.7379C62.5975 43.3349 62.3815 43.2203 61.909 43.3018C61.249 43.4248 60.6125 43.5426 59.9801 43.6827C59.5819 43.771 59.4038 43.9961 59.3756 44.3737C59.3444 44.868 59.3325 45.3348 59.3013 45.8291C59.2801 46.1123 59.157 46.3716 58.8689 46.5283C58.4291 46.7882 58.0168 47.0652 57.5769 47.3251C57.3591 47.4662 57.1401 47.4683 56.9088 47.4035C56.756 47.3677 56.5716 47.2926 56.4147 47.2345C56.0459 47.0841 55.7239 46.9234 55.3632 46.8176C55.0769 46.7186 54.7806 46.8306 54.5832 47.0832C54.4245 47.2809 54.2657 47.4785 54.1304 47.6709C53.8363 48.061 53.8597 48.0558 53.5891 48.4407L53.2229 49.1021C53.1976 49.363 53.3556 49.56 53.533 49.7296C53.8286 50.0123 54.0773 50.3053 54.3688 50.5656C54.6328 50.8089 54.7135 51.1159 54.6109 51.4868C54.4738 51.9349 54.36 52.3779 54.2463 52.8208C54.1853 53.02 54.0652 53.1627 53.8626 53.254C53.3402 53.4625 52.8219 53.6934 52.2996 53.902C52.0267 54.0088 51.8914 54.2013 51.8936 54.4793C51.9122 54.8465 51.9542 55.2086 51.9963 55.5706C52.0617 55.9274 52.1547 56.3014 52.2201 56.6582M70.7856 49.9689C71.2236 49.9648 71.685 49.9554 72.123 49.9512C72.5885 49.9641 72.7577 50.0891 72.8395 50.5351C72.954 51.1596 73.0451 51.7893 73.1363 52.4189C73.1742 52.7586 73.043 52.9734 72.708 53.1404C72.3496 53.3127 71.983 53.4403 71.6205 53.5902C70.8487 53.9005 70.7438 53.9933 70.5702 54.7745C70.5022 55.0681 70.4383 55.3839 70.3468 55.6827C70.2829 55.9986 70.332 56.2662 70.5684 56.4923C70.8324 56.7356 71.0964 56.9788 71.3411 57.2495C71.4634 57.3849 71.5898 57.5425 71.6887 57.6831C71.7917 57.8459 71.7969 58.0073 71.685 58.1945C71.275 58.7495 70.8649 59.3046 70.4548 59.8596C70.3968 59.9421 70.3113 60.0074 70.2492 60.0676C70.0589 60.2258 69.8522 60.2948 69.6168 60.2077C69.2205 60.0402 68.8007 59.8779 68.4084 59.7327C68.2791 59.6918 68.1497 59.6508 68.0203 59.6098C67.8124 59.5398 67.5975 59.5642 67.3797 59.7054C66.9674 59.9824 66.551 60.2371 66.158 60.4866M65.1364 63.2891C64.4296 63.4225 63.7463 63.5507 63.0395 63.6841C62.6606 63.7448 62.4955 63.6421 62.3364 63.306C62.1691 62.9253 62.0252 62.5394 61.9006 62.1261C61.776 61.7127 61.4927 61.497 61.0659 61.4291C60.6156 61.3664 60.1613 61.2813 59.7069 61.1963C59.5073 61.1709 59.3199 61.2125 59.1723 61.338C58.8577 61.6165 58.5239 61.9226 58.2094 62.2012C58.1238 62.2665 58.0424 62.3542 57.9569 62.4196C57.79 62.5726 57.5914 62.6862 57.3725 62.6883C57.3215 62.6764 57.2706 62.6644 57.2197 62.6525C57.1921 62.6354 57.188 62.6131 57.1605 62.596C56.5827 62.2366 56.0009 61.8549 55.3996 61.5007C55.1795 61.3638 55.1193 61.1683 55.1293 60.9572C55.1282 60.8182 55.1932 60.6413 55.2665 60.509C55.42 60.1501 55.6011 59.8083 55.7821 59.4665C55.9825 59.0971 55.9721 58.7745 55.7427 58.454C55.5132 58.1335 55.3032 57.7855 55.0931 57.4375" stroke="white" stroke-width="2" stroke-miterlimit="10"/>
<path d="M52 32.8674H42C39.7909 32.8674 38 34.6583 38 36.8674V79.4999M73 32.8674H84C86.2091 32.8674 88 34.6583 88 36.8674V39.4999" stroke="#929292" stroke-width="2" stroke-miterlimit="10" stroke-linecap="round"/>
<path d="M38 83.5V88.5066C38 90.7157 39.7909 92.5066 42 92.5066H84C86.2091 92.5066 88 90.7157 88 88.5066V43" stroke="white" stroke-width="2" stroke-miterlimit="10" stroke-linecap="round"/>
<path d="M46.9382 71.311H79.0888" stroke="#929292" stroke-width="2" stroke-miterlimit="10" stroke-linecap="round" stroke-linejoin="round"/>
<path d="M46.9382 81.99H54.4409" stroke="#929292" stroke-width="2" stroke-miterlimit="10" stroke-linecap="round"/>
<path d="M57.4204 81.99H79.0889" stroke="#929292" stroke-width="2" stroke-miterlimit="10" stroke-linecap="round" stroke-linejoin="round"/>
<path d="M46.9382 76.3125H59.2351" stroke="#929292" stroke-width="2" stroke-miterlimit="10" stroke-linecap="round" stroke-linejoin="round"/>
<path d="M62.675 76.3125H79.0889" stroke="#929292" stroke-width="2" stroke-miterlimit="10" stroke-linecap="round" stroke-linejoin="round"/>
<path d="M68.9317 30.1369C68.9317 30.0558 68.9317 29.9747 68.9317 29.9207C68.9317 26.6494 66.2773 24 62.9999 24C59.7226 24 57.0682 26.6494 57.0682 29.9207C57.0682 30.0018 57.0682 30.0829 57.0953 30.1369H52.9783V36.5172H73.0487V30.1369H68.9317Z" stroke="#929292" stroke-width="2" stroke-miterlimit="10" stroke-linejoin="round"/>
<circle cx="62.5" cy="53.5" r="2.5" stroke="white" stroke-width="2"/>
<defs>
<filter id="filter0_b" x="-4" y="-4" width="131" height="131" filterUnits="userSpaceOnUse" color-interpolation-filters="sRGB">
<feFlood flood-opacity="0" result="BackgroundImageFix"/>
<feGaussianBlur in="BackgroundImage" stdDeviation="2"/>
<feComposite in2="SourceAlpha" operator="in" result="effect1_backgroundBlur"/>
<feBlend mode="normal" in="SourceGraphic" in2="effect1_backgroundBlur" result="shape"/>
</filter>
</defs>
</svg>
