<svg width="120" height="120" viewBox="0 0 120 120" fill="none" xmlns="http://www.w3.org/2000/svg">
<g filter="url(#filter0_b)">
<circle cx="59.9998" cy="60" r="60" fill="#19191B"/>
</g>
<path d="M53.8002 78.5465C54.1596 78.4839 54.5191 78.4214 54.8785 78.3432C55.2223 78.2651 55.3786 78.0775 55.3942 77.7336C55.4255 77.0926 55.4411 76.4517 55.4411 75.8108C55.4411 75.3574 55.3005 75.2011 54.8629 75.0917C54.4566 74.9822 54.0346 74.9041 53.6127 74.8103C53.2845 74.7321 53.0344 74.5758 52.9094 74.2475C52.7375 73.7785 52.5656 73.3252 52.3937 72.8562C52.3312 72.6686 52.3625 72.4967 52.4562 72.3403C52.5187 72.2309 52.5812 72.1215 52.6594 72.012C52.8938 71.6681 53.1438 71.3086 53.3939 70.9647C53.5345 70.7614 53.5189 70.5582 53.3939 70.355C53.3314 70.2768 53.2845 70.183 53.222 70.1205C52.7844 69.6515 52.3468 69.1982 51.9093 68.7448C51.6905 68.526 51.4404 68.5103 51.1748 68.6354C51.0029 68.7292 50.831 68.823 50.6747 68.9324C50.409 69.1044 50.1433 69.292 49.8777 69.4639C49.6433 69.6203 49.3776 69.6359 49.1275 69.5265C48.6743 69.3232 48.2368 69.12 47.7836 68.9168C47.6117 68.8386 47.4866 68.6979 47.4398 68.5103C47.3929 68.3071 47.346 68.0883 47.2991 67.8694C47.2366 67.5724 47.1897 67.2597 47.1272 66.9471C47.0334 66.5094 46.8459 66.353 46.3927 66.3374C45.7832 66.3218 45.1581 66.3062 44.533 66.3062C44.1423 66.3062 43.9392 66.4781 43.8454 66.8533C43.736 67.3223 43.6266 67.7912 43.5172 68.2602C43.4547 68.5416 43.2828 68.7448 42.9859 68.8543C42.5327 69.0106 42.0795 69.1825 41.6419 69.3545C41.4075 69.4483 41.2043 69.417 41.0012 69.292C40.8449 69.2138 40.7043 69.1044 40.5636 69.0106C40.2667 68.8074 39.9698 68.5729 39.6572 68.3853C39.3915 68.2133 39.1102 68.2602 38.8758 68.4634C38.7039 68.6198 38.532 68.7761 38.3601 68.9324C38.0319 69.2607 37.7038 69.589 37.3756 69.9173C37.3287 69.9798 37.2974 70.0423 37.3443 70.058C37.2974 70.3237 37.4068 70.5426 37.5319 70.7458C37.735 71.0741 37.9382 71.418 38.157 71.7463C38.3757 72.0589 38.407 72.3716 38.2351 72.7155C38.0476 73.122 37.86 73.544 37.6725 73.9505C37.5787 74.1381 37.4381 74.2475 37.2349 74.2944C36.7036 74.4038 36.1879 74.5133 35.6565 74.6071C35.3752 74.6696 35.2033 74.8259 35.1721 75.0917C35.1252 75.4512 35.0939 75.8264 35.0783 76.1859C35.0627 76.5611 35.0783 76.9363 35.0939 77.3115C35.0939 77.5616 35.219 77.7336 35.4378 77.7961C35.8284 77.9212 36.2348 78.015 36.6255 78.1088C36.7817 78.1556 36.938 78.1869 37.0943 78.2338M52.3156 81.1884C52.5187 81.4854 52.7219 81.798 52.9094 82.0951C53.0032 82.2514 53.0813 82.4233 53.1595 82.6109C53.222 82.7829 53.2064 82.9705 53.0657 83.1112C52.5812 83.5645 52.1124 84.0335 51.628 84.4868C51.5655 84.5494 51.4717 84.5963 51.3935 84.6432C51.1904 84.7682 50.9872 84.7839 50.7841 84.6432C50.4403 84.393 50.0808 84.1586 49.737 83.9084C49.6276 83.8303 49.5182 83.7677 49.4088 83.7052C49.2213 83.5958 49.0181 83.5645 48.7994 83.6427C48.3774 83.8146 47.9398 83.9866 47.5179 84.1429C47.2522 84.2524 47.096 84.4399 47.0334 84.7213C46.9397 85.1278 46.8459 85.5499 46.7521 85.9563C46.7365 86.0345 46.7053 86.1283 46.674 86.2064C46.5646 86.5347 46.3927 86.6754 46.0489 86.6754C45.3769 86.6598 44.7049 86.6441 44.0173 86.5972C43.6579 86.5816 43.5016 86.4253 43.4391 86.0814C43.361 85.6749 43.2828 85.2528 43.2203 84.8308C43.1734 84.393 42.9546 84.1117 42.5483 83.9553C42.142 83.7834 41.7357 83.6114 41.3294 83.4395C41.1418 83.3613 40.9699 83.3613 40.798 83.4707C40.4542 83.6896 40.0948 83.9084 39.751 84.1273C39.6572 84.1742 39.5791 84.2367 39.4853 84.2836C39.2978 84.393 39.0946 84.4556 38.8758 84.4243C38.8289 84.393 38.7821 84.3774 38.7352 84.3462C38.7196 84.3305 38.7039 84.2993 38.6883 84.2836C38.2038 83.799 37.7194 83.2988 37.2349 82.8298C37.063 82.6578 37.0161 82.4546 37.063 82.2358C37.0943 82.0951 37.1724 81.9387 37.2662 81.8137C37.4693 81.501 37.6881 81.204 37.9225 80.907M46.3302 74.1537C45.0175 73.5128 43.4703 74.0755 42.8296 75.3887C42.2983 76.4673 42.6577 78.1713 44.0798 78.8435C45.3613 79.4688 46.9397 78.9216 47.5492 77.6398" stroke="#929292" stroke-width="2" stroke-miterlimit="10"/>
<path d="M81.8788 71.2029C79.4272 68.3683 75.6317 67.4915 72.354 68.5804C72.3223 68.5447 72.2906 68.509 72.259 68.4733L54.4393 48.3853C54.3126 48.2424 54.1683 48.1152 54.0398 48.0058C55.5963 44.8702 55.1643 40.946 52.6616 38.1247C50.2223 35.3749 46.4955 34.4692 43.2705 35.5113L48.7035 41.6359L43.4612 46.2862L38.0441 40.1795C36.6231 43.2906 37.0955 47.0832 39.519 49.8152C42.0216 52.6365 45.8681 53.4999 49.1652 52.3619C49.2585 52.5025 49.3518 52.6431 49.4943 52.8038L59.1933 63.626M61.3374 66.3061L67.3298 72.9096C67.3457 72.9275 67.3615 72.9453 67.3773 72.9632C65.8033 76.1144 66.2177 80.0543 68.7203 82.8755C71.1597 85.6253 74.8865 86.531 78.1115 85.489L72.6785 79.3644L77.9207 74.714L83.3538 80.8386C84.23 78.9201 84.3863 76.7424 83.809 74.714" stroke="white" stroke-width="2" stroke-miterlimit="10" stroke-linecap="round" stroke-linejoin="round"/>
<path d="M65.0897 35.2162H78.4905" stroke="#929292" stroke-width="2" stroke-linecap="round"/>
<path d="M82.2427 35.2162H84.3868" stroke="#929292" stroke-width="2" stroke-linecap="round"/>
<path d="M65.0896 45.9369H78.4904" stroke="#929292" stroke-width="2" stroke-linecap="round"/>
<path d="M82.2426 45.9369H84.3867" stroke="#929292" stroke-width="2" stroke-linecap="round"/>
<path d="M65.0896 40.5766H68.3058" stroke="#929292" stroke-width="2" stroke-linecap="round"/>
<path d="M72.594 40.5766L84.3867 40.5766" stroke="#929292" stroke-width="2" stroke-linecap="round"/>
<path d="M65.0896 51.2972H73.6661" stroke="#929292" stroke-width="2" stroke-linecap="round"/>
<path d="M77.9543 51.2972L84.3867 51.2972" stroke="#929292" stroke-width="2" stroke-linecap="round"/>
<defs>
<filter id="filter0_b" x="-4.00024" y="-4" width="128" height="128" filterUnits="userSpaceOnUse" color-interpolation-filters="sRGB">
<feFlood flood-opacity="0" result="BackgroundImageFix"/>
<feGaussianBlur in="BackgroundImage" stdDeviation="2"/>
<feComposite in2="SourceAlpha" operator="in" result="effect1_backgroundBlur"/>
<feBlend mode="normal" in="SourceGraphic" in2="effect1_backgroundBlur" result="shape"/>
</filter>
</defs>
</svg>
