<svg width="123" height="123" viewBox="0 0 123 123" fill="none" xmlns="http://www.w3.org/2000/svg">
<g filter="url(#filter0_b)">
<circle cx="61.5" cy="61.5" r="61.5" fill="#19191B"/>
</g>
<path d="M59.2346 76.5184C58.9444 76.9194 58.6542 77.3204 58.3793 77.7373C58.1197 78.1396 58.1505 78.4776 58.4719 78.8431C59.0688 79.5263 59.681 80.1948 60.3084 80.8487C60.7522 81.3112 61.0428 81.3387 61.5777 81.0399C62.0821 80.7703 62.5711 80.4542 63.0755 80.154C63.4729 79.9259 63.8703 79.8508 64.314 80.0684C64.9411 80.3856 65.553 80.6868 66.1802 81.004C66.4249 81.1367 66.5627 81.3414 66.6241 81.5889C66.6701 81.7592 66.7161 81.9295 66.7468 82.1144C66.8543 82.6852 66.9619 83.2866 67.0541 83.872C67.1155 84.2113 67.3297 84.4039 67.6509 84.494C67.7885 84.5151 67.9262 84.5668 68.0485 84.5719C68.9355 84.6399 69.8071 84.6918 70.6787 84.7438C71.1068 84.7618 71.3666 84.5432 71.5039 84.1664C71.5801 83.9094 71.6564 83.6524 71.7021 83.3942C71.7935 82.9695 71.8695 82.5289 71.9609 82.1042C72.0371 81.7248 72.2815 81.4596 72.6331 81.3367C73.2751 81.1188 73.9019 80.9156 74.5439 80.6978C74.7885 80.6163 75.0485 80.6425 75.278 80.7899C75.5227 80.9532 75.7828 81.1325 76.0429 81.3118C76.3948 81.5562 76.7467 81.8312 77.1139 82.0915C77.6341 82.4501 77.9705 82.4336 78.4288 82.0244C79.04 81.4685 79.6665 80.898 80.2776 80.3116C80.6596 79.9451 80.6899 79.579 80.4143 79.1083C80.0621 78.5272 79.7099 77.9462 79.3578 77.3651C79.1434 77.0194 79.1126 76.6508 79.2957 76.2606C79.5858 75.6759 79.8605 75.0753 80.12 74.4894C80.2573 74.1738 80.4866 74.0151 80.8076 73.952C81.0369 73.8852 81.2816 73.8649 81.5109 73.8286C82.0001 73.7574 82.52 73.718 83.0092 73.6162C83.4373 73.5423 83.6664 73.2306 83.6966 72.8034C83.7117 72.4826 83.7267 72.1618 83.7417 71.8411C83.7412 71.1983 83.7407 70.5555 83.7402 69.9127C83.7248 69.8049 83.6941 69.7118 83.633 69.7398C83.4187 69.4247 83.0975 69.3041 82.7763 69.2141C82.2563 69.0697 81.721 68.9095 81.1857 68.7798C80.6657 68.6661 80.3291 68.3765 80.1605 67.8644C79.9459 67.2738 79.7161 66.6672 79.5015 66.0767C79.4096 65.7973 79.4399 65.5537 79.5927 65.3153C80.005 64.7052 80.4021 64.1097 80.8297 63.5155C81.0435 63.1878 81.0586 62.8671 80.829 62.5666C80.5228 62.1558 80.1861 61.7438 79.8494 61.3623C79.4974 60.9649 79.1148 60.5968 78.7322 60.2287C78.4874 59.9735 78.1968 59.9154 77.9217 60.0569C77.4173 60.2958 76.9282 60.5813 76.4544 60.8521C76.2557 60.9509 76.0723 61.0656 75.8736 61.1644C75.5221 61.3486 75.1857 61.3344 74.8339 61.1513C74.3291 60.9005 73.8243 60.619 73.3042 60.3829C72.7841 60.1468 72.5086 59.7679 72.4469 59.2143C72.3854 58.6914 72.3085 58.1831 72.201 57.6736C72.1703 57.458 72.0936 57.2252 71.9865 57.0524C71.8181 56.7851 71.5733 56.6218 71.2369 56.6076C70.3041 56.5837 69.3408 56.5278 68.3927 56.4879C68.3621 56.4866 68.3162 56.4694 68.2857 56.4681C68.2092 56.4802 68.1481 56.5083 68.0716 56.5203C67.8271 56.6937 67.6897 56.9481 67.6135 57.2357C67.5677 57.3715 67.5525 57.5086 67.5068 57.6444C67.3849 58.1902 67.2477 58.7507 67.1259 59.2965C67.0649 59.5694 66.8968 59.7307 66.637 59.8269C66.0714 60.0327 65.5058 60.2384 64.9402 60.4442C64.3899 60.6659 63.9006 60.5841 63.4262 60.1815C62.9519 59.8096 62.4623 59.4523 61.988 59.1109C61.5902 58.8187 61.2844 58.8059 60.9177 59.1271C60.1995 59.7244 59.5272 60.3389 58.8549 60.9533C58.5188 61.2759 58.4885 61.5807 58.7029 62.0182C58.7489 62.1273 58.8101 62.2523 58.8714 62.3467C59.1776 62.8493 59.4991 63.3679 59.8053 63.8705C60.0197 64.2162 60.0505 64.5542 59.8979 64.9151C59.6384 65.4704 59.379 66.0564 59.1348 66.6277C58.9974 66.9127 58.7682 67.0714 58.4777 67.1357C58.3095 67.1745 58.1414 67.2133 57.9579 67.2362C57.3769 67.3036 56.7959 67.4016 56.2149 67.469C55.8786 67.516 55.6953 67.7226 55.6191 68.0408C55.5886 68.1619 55.5428 68.2977 55.5429 68.4202C55.5131 69.3372 55.5138 70.2554 55.484 71.1724C55.4842 71.4479 55.6526 71.654 55.882 71.7707C56.1421 71.8888 56.3868 71.9909 56.6315 72.0624C57.1056 72.1895 57.6103 72.3179 58.0997 72.4303C58.528 72.5402 58.8187 72.8126 58.9872 73.2329M70.8381 73.9917C72.749 73.414 73.7107 71.3884 73.0516 69.4477C72.5151 67.8487 70.4956 66.4476 68.4472 67.096C66.5822 67.6603 65.5747 69.6993 66.2337 71.5788" stroke="#929292" stroke-width="2" stroke-miterlimit="10"/>
<path d="M49.8438 61.5181C50.1707 61.3018 50.4976 61.0855 50.7981 60.8533C51.0986 60.6212 51.4045 60.5896 51.7578 60.7481C52.0848 60.8908 52.4117 61.0334 52.7545 61.1497C52.8811 61.2078 53.0498 61.2554 53.1816 61.2449C53.382 61.2397 53.5666 61.1711 53.6931 60.96C54.0199 60.3848 54.3731 59.8254 54.7052 59.2712C54.721 59.2448 54.7421 59.2396 54.7579 59.2132C54.7685 59.1657 54.779 59.1182 54.7896 59.0707C54.7842 58.8701 54.6735 58.6958 54.5258 58.5532C54.4625 58.4793 54.3781 58.4107 54.3148 58.3367C54.0459 58.0674 53.7505 57.7822 53.4815 57.5129C53.3602 57.3862 53.318 57.2172 53.3391 57.0325C53.4128 56.6102 53.4866 56.1879 53.5392 55.7709C53.5972 55.375 53.7975 55.1006 54.1877 54.9582C54.5779 54.8159 54.9417 54.6576 55.3002 54.4783C55.6166 54.3095 55.7115 54.1512 55.6481 53.808C55.5109 53.1692 55.379 52.5516 55.2418 51.9128C55.1837 51.5907 54.9939 51.4587 54.6775 51.448C54.5878 51.448 54.5193 51.4427 54.4296 51.4426C54.0289 51.453 53.6281 51.4634 53.2274 51.4738C52.9373 51.479 52.737 51.3945 52.5682 51.1674C52.3256 50.8242 52.0777 50.4598 51.8087 50.1008C51.6715 49.9107 51.6451 49.7154 51.7084 49.5201C51.7453 49.3987 51.7821 49.2773 51.819 49.1559C51.9508 48.7864 52.0984 48.3906 52.2512 48.0158C52.3303 47.7941 52.2617 47.6094 52.1088 47.4457C52.0507 47.3928 51.9875 47.3189 51.9083 47.2714C51.3757 46.9333 50.8431 46.5953 50.3104 46.2572C50.1311 46.1674 49.9782 46.1832 49.8253 46.2887C49.6935 46.3889 49.5459 46.5156 49.4193 46.6369C49.1663 46.8797 48.9396 47.1382 48.7129 47.3968C48.502 47.629 48.2489 47.6922 47.9483 47.6552C47.6636 47.5917 47.363 47.5546 47.0835 47.5123C46.34 47.4064 46.2503 47.3166 45.9444 46.6303C45.7966 46.3082 45.67 45.9809 45.5012 45.6641C45.3377 45.3684 45.1321 45.2627 44.8104 45.3207C44.2146 45.4471 43.6187 45.5736 43.0282 45.7212C42.6063 45.8266 42.4904 45.9902 42.4852 46.4177C42.4958 46.8189 42.5117 47.2412 42.5223 47.6424C42.5382 47.975 42.4486 48.2442 42.1797 48.4236C41.7948 48.6768 41.3941 48.9564 41.0092 49.2096C40.8563 49.3152 40.677 49.3151 40.5082 49.2675C40.408 49.2252 40.2868 49.1882 40.1655 49.1512C39.7963 49.0191 39.4008 48.8712 39.0264 48.7179C38.8049 48.6387 38.6204 48.7072 38.4569 48.8602C38.3831 48.9235 38.3093 48.9869 38.2619 49.066C37.9403 49.5727 37.6187 50.0793 37.2972 50.5859C37.1337 50.8287 37.1707 51.0663 37.3606 51.288C37.4871 51.4359 37.6084 51.5626 37.7508 51.6841C37.9618 51.9006 38.1886 52.0908 38.4206 52.302C38.6263 52.4974 38.7055 52.7244 38.658 52.9831C38.5948 53.4476 38.5053 53.8962 38.421 54.366C38.3788 54.556 38.2787 54.6932 38.1205 54.7776C37.9412 54.8673 37.762 54.957 37.5616 55.0519C37.2769 55.1679 36.9921 55.284 36.7338 55.4158C36.3542 55.6004 36.2487 55.8063 36.3332 56.2339C36.4598 56.8304 36.5812 57.4059 36.7237 57.9761C36.8134 58.335 37.0296 58.4829 37.3882 58.4831C37.8575 58.478 38.3004 58.4571 38.7697 58.452C39.0387 58.4521 39.2865 58.5472 39.4395 58.8006C39.6927 59.1861 39.9617 59.5451 40.2148 59.9306C40.352 60.1207 40.3573 60.3213 40.2993 60.5377C40.2677 60.6802 40.1992 60.8544 40.1465 61.0022C40.0094 61.3505 39.8618 61.6566 39.767 61.9944C39.6774 62.2636 39.7882 62.5276 40.0308 62.6913C40.2206 62.8234 40.4105 62.9554 40.595 63.0664C40.9695 63.3093 40.9642 63.2882 41.3334 63.5101L41.9662 63.8007C42.214 63.806 42.3986 63.6478 42.5567 63.4736C42.8203 63.1834 43.0945 62.9354 43.337 62.6504C43.5637 62.3919 43.8537 62.297 44.207 62.3657C44.6341 62.4609 45.056 62.535 45.4779 62.6091C45.6677 62.6514 45.8048 62.7517 45.8945 62.9312C46.1002 63.3958 46.3271 63.8552 46.5328 64.3198C46.6383 64.5627 46.8229 64.6736 47.0865 64.6526C47.4345 64.6105 47.7773 64.5473 48.12 64.4841C48.4575 64.3998 48.8108 64.289 49.1482 64.2047M46.6097 52.1627C44.7905 51.7872 43.3775 53.1275 43.1984 54.3838C42.9086 55.735 43.6155 57.0392 44.8284 57.5886M48.7932 54.2646C48.8934 54.6658 48.9146 55.1092 48.8198 55.5368C48.5578 56.8575 47.4615 57.6551 46.3746 57.8136" stroke="white" stroke-width="2" stroke-miterlimit="10"/>
<path d="M99 62.5C99 41.237 81.763 24 60.5 24C39.237 24 22 41.237 22 62.5C22 68.2088 23.2425 73.6273 25.4718 78.5" stroke="white" stroke-width="2"/>
<path d="M92.4421 84.5C85.5257 94.7555 73.8004 101.5 60.5 101.5C46.1414 101.5 33.6186 93.6397 27 81.9873" stroke="#929292" stroke-width="2"/>
<path d="M104.082 62.567L98.7722 69.7722L93.4626 62.567L100 62.567" stroke="white" stroke-width="2" stroke-linejoin="round"/>
<defs>
<filter id="filter0_b" x="-4" y="-4" width="131" height="131" filterUnits="userSpaceOnUse" color-interpolation-filters="sRGB">
<feFlood flood-opacity="0" result="BackgroundImageFix"/>
<feGaussianBlur in="BackgroundImage" stdDeviation="2"/>
<feComposite in2="SourceAlpha" operator="in" result="effect1_backgroundBlur"/>
<feBlend mode="normal" in="SourceGraphic" in2="effect1_backgroundBlur" result="shape"/>
</filter>
</defs>
</svg>
